<?xml version="1.0" standalone="no"?>
<!DOCTYPE svg PUBLIC "-//W3C//DTD SVG 20010904//EN"
 "http://www.w3.org/TR/2001/REC-SVG-20010904/DTD/svg10.dtd">
<svg version="1.0" xmlns="http://www.w3.org/2000/svg"
 width="30.000000pt" height="30.000000pt" viewBox="0 0 400.000000 399.000000"
 preserveAspectRatio="xMidYMid meet">

<g transform="translate(0.000000,399.000000) scale(0.100000,-0.100000)"
fill="#000000" stroke="none">
<path d="M2184 3974 c-77 -28 -196 -142 -310 -299 l-21 -29 -79 70 c-149 131
-264 194 -355 194 -49 0 -55 -3 -104 -52 -63 -64 -106 -167 -138 -328 -12 -58
-22 -107 -24 -109 -1 -2 -51 10 -110 27 -151 44 -238 56 -318 43 -125 -19
-164 -75 -165 -231 0 -84 22 -211 56 -327 7 -25 11 -23 -116 -43 -211 -34
-356 -112 -381 -204 -24 -89 54 -248 203 -413 21 -24 38 -46 38 -50 -1 -5 -38
-33 -83 -63 -169 -112 -287 -262 -274 -347 17 -102 154 -210 390 -307 l38 -16
-26 -42 c-46 -75 -113 -221 -130 -283 -32 -126 -14 -199 62 -249 65 -43 141
-57 316 -57 l158 0 -7 -32 c-15 -68 -9 -290 10 -352 43 -144 89 -181 211 -172
79 6 214 53 319 112 35 19 67 35 73 35 5 0 15 -19 22 -42 18 -62 84 -199 120
-251 43 -63 110 -125 149 -138 95 -31 219 48 359 231 37 47 70 89 75 95 5 5
25 -7 51 -31 122 -116 217 -181 315 -213 81 -27 126 -17 182 40 59 61 126 240
146 390 6 46 9 50 28 44 88 -26 252 -64 302 -70 72 -8 169 8 204 33 14 10 35
38 48 63 22 41 23 53 19 164 -4 86 -12 148 -31 219 -15 54 -25 100 -23 102 2
2 44 11 93 19 109 19 225 50 267 71 56 29 119 86 134 122 20 47 11 102 -31
188 -34 71 -133 211 -180 253 -14 14 -26 28 -26 33 0 4 37 33 83 65 173 120
287 266 274 350 -15 88 -109 171 -304 265 l-123 60 26 41 c47 77 113 221 129
282 30 119 16 191 -47 238 -64 48 -119 60 -311 65 l-177 4 6 37 c4 20 8 92 8
161 0 130 -14 202 -55 281 -35 70 -133 96 -244 65 -70 -19 -195 -70 -258 -106
-30 -16 -58 -30 -63 -30 -5 0 -22 36 -37 79 -56 158 -166 313 -244 347 -40 17
-66 17 -119 -2z m139 -49 c14 -9 36 -37 49 -63 20 -41 23 -61 22 -162 -1 -133
-32 -295 -61 -316 -10 -6 -50 -35 -90 -63 l-71 -50 -66 82 c-74 93 -76 101
-56 267 31 248 153 384 273 305z m-811 -76 c74 -53 127 -154 168 -319 l29
-119 -51 -93 c-27 -51 -51 -94 -53 -96 -1 -1 -45 18 -98 44 l-95 46 -36 83
c-42 97 -76 231 -75 295 1 147 110 230 211 159z m558 -22 c-27 -61 -47 -156
-55 -260 -8 -100 -5 -100 -86 -5 l-51 58 38 57 c34 49 160 193 169 193 2 0 -5
-20 -15 -43z m-411 -56 c64 -48 173 -151 169 -160 -2 -3 -23 -39 -47 -80 -50
-83 -45 -86 -80 44 -12 44 -39 115 -59 158 -21 42 -37 77 -37 77 1 0 25 -18
54 -39z m818 -58 c40 -90 77 -183 71 -187 -1 -1 -36 -23 -76 -50 -41 -26 -75
-46 -77 -44 -1 2 6 44 16 93 10 50 19 129 19 178 0 48 3 87 6 87 3 0 21 -35
41 -77z m-1187 -173 c6 -24 25 -78 41 -118 17 -41 28 -77 25 -80 -3 -2 -41 10
-86 28 -59 25 -80 38 -80 52 0 31 30 166 53 236 l21 67 7 -70 c4 -38 12 -90
19 -115z m1533 42 c-32 -33 -85 -103 -118 -156 -33 -54 -61 -94 -62 -89 -15
49 -51 178 -50 179 25 20 279 135 285 129 2 -2 -23 -30 -55 -63z m278 40 c90
-81 32 -264 -153 -481 -24 -28 -38 -34 -129 -51 -56 -11 -105 -18 -108 -15 -4
2 -18 48 -30 103 l-24 99 38 69 c116 208 217 304 322 304 43 0 58 -5 84 -28z
m-1087 -295 c4 -56 9 -118 12 -137 5 -37 6 -35 -106 -118 -15 -11 -27 -8 -83
23 -74 41 -64 16 -87 214 l-11 93 58 96 58 95 76 -82 76 -82 7 -102z m583 56
c30 -106 30 -109 13 -143 -9 -19 -32 -74 -50 -122 l-32 -87 -75 -18 -76 -17
-27 33 c-15 18 -35 47 -45 64 -17 32 -16 34 27 157 l43 125 85 57 c47 32 90
58 96 58 6 0 24 -48 41 -107z m-1757 45 c86 -42 300 -278 285 -316 -3 -7 -5
-52 -5 -98 l0 -84 -115 0 -116 0 -108 108 c-120 119 -159 183 -167 273 -12
127 92 181 226 117z m141 7 c37 -9 89 -25 115 -35 l49 -18 -3 -59 c-2 -32 -7
-73 -10 -91 l-7 -34 -71 84 c-39 46 -96 101 -127 123 -31 22 -56 43 -57 48 0
8 7 7 111 -18z m2187 -163 c-3 -68 -9 -127 -14 -131 -5 -5 -49 -12 -98 -16
l-90 -7 34 38 c49 57 123 173 145 230 25 64 29 44 23 -114z m-1862 51 l81 -34
67 -117 67 -117 -28 -60 c-15 -33 -32 -65 -38 -71 -6 -7 -37 -9 -82 -6 l-72 4
-72 115 -72 116 7 86 c4 47 10 96 13 109 6 26 7 26 129 -25z m792 -8 c23 -30
42 -57 42 -62 0 -11 -66 -63 -79 -63 -6 0 -11 20 -11 44 0 24 -3 64 -6 90 -4
25 -3 46 2 45 5 0 28 -24 52 -54z m-370 -63 c4 -51 4 -92 0 -92 -19 0 -88 41
-88 52 0 14 71 141 76 136 2 -3 7 -46 12 -96z m570 -5 c-18 -48 -35 -87 -39
-87 -7 0 -59 73 -59 83 0 9 121 99 126 94 2 -2 -10 -43 -28 -90z m-730 -102
c-12 -25 -25 -45 -30 -45 -9 0 -88 132 -88 148 0 7 28 -2 70 -23 l70 -35 -22
-45z m-916 -12 c17 -27 68 -83 111 -126 43 -43 77 -80 75 -82 -1 -1 -43 -5
-93 -6 l-89 -4 -14 45 c-17 59 -52 235 -52 263 1 18 3 16 15 -10 8 -18 29 -54
47 -80z m1557 36 c39 -49 40 -52 27 -82 -64 -148 -83 -170 -125 -148 -11 6
-22 23 -25 38 -11 53 -27 166 -24 168 14 14 94 74 100 74 3 1 25 -22 47 -50z
m450 -27 c6 -29 11 -59 11 -66 0 -14 -88 -42 -98 -32 -3 3 3 27 13 53 50 132
55 135 74 45z m-975 1 l55 -27 3 -95 c3 -82 0 -99 -15 -114 -10 -10 -25 -16
-34 -13 -8 3 -18 6 -23 6 -4 0 -31 35 -59 79 l-52 79 28 56 c15 31 31 56 35
56 4 0 32 -12 62 -27z m1796 -40 l45 -6 -47 -12 c-70 -19 -173 -69 -245 -121
-35 -25 -67 -44 -69 -41 -3 2 0 36 6 73 20 123 12 113 88 117 70 4 147 0 222
-10z m-1436 -54 c4 -34 5 -63 2 -66 -2 -2 -16 3 -30 11 -14 9 -38 23 -53 32
l-26 16 39 34 c21 18 44 33 50 34 7 0 14 -26 18 -61z m1104 -6 c-23 -158 -20
-151 -127 -251 l-99 -92 -74 16 c-40 9 -75 18 -77 20 -2 2 -10 36 -16 76 l-13
72 97 97 98 97 69 10 c38 5 87 10 110 11 l41 1 -9 -57z m-1921 -58 c18 -30 28
-57 23 -60 -4 -3 -29 -2 -54 1 l-46 7 0 81 1 81 22 -28 c13 -15 37 -52 54 -82z
m598 83 c25 -12 45 -26 45 -30 0 -12 -73 -77 -87 -78 -9 0 -13 20 -13 65 0 36
2 65 5 65 2 0 25 -10 50 -22z m483 -34 c23 -31 29 -46 20 -49 -61 -22 -108
-32 -108 -22 0 17 43 117 49 117 3 -1 21 -21 39 -46z m502 -39 c-35 -36 -68
-61 -72 -57 -4 4 -11 29 -14 54 l-6 46 43 10 c24 5 60 10 79 11 l34 1 -64 -65z
m841 42 c133 -90 17 -270 -257 -399 l-84 -39 -97 27 c-54 14 -101 28 -104 30
-4 2 3 48 15 103 21 98 21 99 71 139 180 143 366 200 456 139z m-962 -44 c23
-88 22 -92 -54 -155 -50 -43 -76 -58 -94 -56 -43 5 -47 28 -22 120 13 46 28
88 33 93 9 10 80 32 110 34 12 1 20 -11 27 -36z m-1104 -31 c20 -30 35 -56 32
-58 -2 -3 -31 -1 -64 3 l-60 8 24 54 c13 29 25 52 27 50 3 -2 21 -28 41 -57z
m404 13 c39 -22 71 -45 71 -52 0 -7 -31 -21 -69 -33 -55 -16 -84 -19 -140 -14
-40 4 -74 11 -77 15 -2 4 10 21 28 37 18 16 49 43 68 60 19 17 38 30 42 29 3
-1 38 -20 77 -42z m521 7 c0 -14 -32 -106 -40 -115 -3 -4 -21 16 -39 44 -17
28 -30 53 -29 54 5 6 73 23 91 24 9 1 17 -3 17 -7z m-96 -101 c27 -40 46 -75
42 -78 -3 -4 -38 -2 -77 4 -51 8 -88 22 -128 46 -80 50 -78 60 21 84 46 11 85
19 88 18 3 -2 27 -35 54 -74z m-1320 13 c12 -4 16 -20 16 -56 0 -59 -1 -59
-90 2 -33 23 -58 45 -55 51 7 10 104 13 129 3z m-91 -76 l106 -73 0 -81 1 -82
-65 -26 c-36 -14 -70 -26 -76 -26 -6 0 -32 15 -58 33 -25 19 -74 50 -108 71
-60 35 -62 39 -92 117 -49 127 -49 127 -9 132 18 2 70 5 115 5 l81 2 105 -72z
m323 -13 c47 -86 49 -115 10 -133 -19 -8 -37 -2 -109 40 l-87 50 0 64 0 65 71
-3 72 -3 43 -80z m111 71 c1 -1 -10 -27 -24 -59 l-26 -58 -33 58 c-18 32 -34
62 -34 66 0 7 108 0 117 -7z m703 6 c0 -13 -29 -48 -30 -35 0 6 -3 18 -6 27
-4 12 0 16 15 16 12 0 21 -4 21 -8z m-486 -23 c6 -5 -12 -29 -45 -58 -39 -37
-73 -57 -126 -75 -87 -29 -87 -29 -42 79 l32 75 86 -6 c47 -4 90 -10 95 -15z
m416 6 c0 -16 -35 -21 -45 -6 -4 8 9 15 38 20 4 0 7 -6 7 -14z m-1409 -67 c13
-40 25 -78 27 -85 2 -6 -45 9 -104 34 -59 25 -135 50 -170 56 -35 6 -64 14
-64 18 0 6 48 17 160 38 25 5 64 9 87 10 l41 1 23 -72z m1086 46 c9 -23 -11
-38 -26 -20 -13 16 -7 36 10 36 5 0 12 -7 16 -16z m454 -1 c12 -15 12 -16 -4
-10 -10 4 -23 7 -28 7 -5 0 -9 5 -9 10 0 16 26 12 41 -7z m-386 -3 c-3 -5 -15
-10 -26 -10 -11 0 -17 5 -14 10 3 6 15 10 26 10 11 0 17 -4 14 -10z m909 -21
c10 -53 8 -82 -8 -76 -7 3 -34 9 -60 12 -25 4 -46 10 -46 12 0 10 85 82 96 83
6 0 14 -14 18 -31z m-682 5 c60 -9 58 -30 -16 -162 -35 -64 -70 -117 -76 -117
-16 0 -180 207 -180 227 0 11 21 24 73 42 72 25 91 26 199 10z m-352 -19 c0
-8 -4 -15 -9 -15 -5 0 -18 -3 -28 -7 -17 -6 -17 -5 1 15 22 26 36 28 36 7z
m1406 -22 c-12 -74 -27 -113 -43 -113 -9 0 -34 5 -56 12 l-40 12 69 63 c38 34
71 63 73 63 2 0 1 -17 -3 -37z m-825 7 c36 -7 159 -84 159 -98 0 -17 -29 -43
-130 -116 -58 -41 -108 -72 -111 -68 -5 6 -40 145 -63 253 -2 9 1 24 6 33 10
17 43 17 139 -4z m-1812 -30 c40 -11 115 -42 167 -67 l93 -47 40 -98 40 -98
-95 -47 -95 -46 -97 27 c-189 53 -302 124 -341 216 -19 43 -20 57 -11 84 12
37 43 70 80 85 42 16 141 12 219 -9z m3188 -43 c-14 -31 -44 -87 -66 -125
l-41 -71 -91 31 -92 31 94 48 c52 27 121 71 154 98 33 27 62 47 64 45 1 -1 -8
-27 -22 -57z m-1917 38 c10 -12 12 -48 7 -152 -4 -75 -9 -138 -11 -140 -2 -2
-62 24 -132 59 -83 41 -130 69 -132 81 -6 31 101 119 177 144 80 27 76 26 91
8z m708 -2 c5 -18 -10 -16 -34 2 -18 15 -18 15 5 13 14 -2 26 -9 29 -15z m61
-29 c-16 -19 -29 -17 -29 4 0 26 11 34 27 21 10 -9 10 -15 2 -25z m190 -5 c27
-6 52 -17 55 -25 9 -24 19 -174 12 -174 -4 0 -33 18 -64 40 -53 39 -132 139
-132 169 0 14 26 12 129 -10z m-1439 -59 c8 -4 13 -11 10 -13 -12 -12 -108
-45 -114 -40 -8 8 -8 98 0 106 4 4 25 -5 48 -19 23 -13 48 -29 56 -34z m882
-63 c15 -61 24 -115 22 -119 -9 -14 -82 -58 -96 -58 -12 0 -78 72 -78 84 0 15
114 215 119 210 3 -3 18 -56 33 -117z m408 99 c0 -2 3 -12 6 -21 6 -15 4 -15
-15 -4 -25 16 -27 29 -6 29 8 0 15 -2 15 -4z m311 -12 c21 -4 39 -10 39 -13 0
-4 -22 -28 -49 -55 l-48 -47 -7 47 c-10 74 -8 87 10 80 9 -3 33 -9 55 -12z
m-1386 -14 c-10 -11 -22 -17 -28 -13 -6 4 -3 12 8 20 28 20 41 16 20 -7z m389
-70 c42 -49 76 -95 76 -101 0 -16 -53 -99 -63 -99 -5 0 -31 10 -59 22 l-51 22
7 89 c3 50 6 105 6 124 0 18 2 33 4 33 3 0 39 -40 80 -90z m712 10 c31 -24 65
-62 88 -101 36 -60 36 -63 19 -79 -18 -17 -268 -68 -279 -57 -10 10 48 261 64
279 17 20 30 15 108 -42z m-1162 34 c8 -22 8 -24 -8 -24 -18 0 -29 16 -21 30
9 15 22 12 29 -6z m1606 4 c57 -13 56 -10 30 -109 -10 -36 -11 -37 -103 -61
-100 -27 -123 -24 -133 19 -5 18 8 38 56 93 34 38 70 70 80 70 10 0 42 -5 70
-12z m-1690 -31 c0 -8 -11 -42 -25 -78 -19 -48 -39 -76 -77 -111 -29 -26 -56
-44 -60 -42 -4 3 -8 45 -8 93 l0 88 78 31 c89 36 92 36 92 19z m1858 -13 c32
-9 61 -20 65 -24 7 -6 -138 -60 -163 -60 -13 0 -13 15 1 63 11 42 18 44 97 21z
m-2322 -40 c41 -25 74 -48 74 -50 0 -6 -79 -44 -92 -44 -11 0 -39 54 -64 123
-9 25 1 22 82 -29z m1521 -89 c-23 -108 -24 -109 -56 -118 -18 -4 -47 -7 -64
-5 -28 3 -32 7 -44 57 -8 30 -10 58 -6 62 29 29 188 133 191 125 1 -6 -8 -60
-21 -121z m-1003 116 c3 -4 -3 -16 -14 -26 -20 -18 -25 -11 -14 19 7 18 20 21
28 7z m68 -38 c15 -19 108 -235 108 -253 0 -16 -272 -13 -294 3 -17 12 -16 17
10 82 19 51 42 86 83 128 30 31 60 57 67 57 6 0 18 -8 26 -17z m1963 -18 c127
-42 123 -35 69 -113 -76 -108 -81 -112 -216 -153 -96 -29 -126 -35 -138 -26
-8 6 -36 28 -61 49 l-46 37 20 74 19 73 117 41 c64 22 126 41 137 42 12 0 56
-10 99 -24z m-2287 -60 l-3 -57 -52 39 c-29 21 -51 42 -50 47 4 13 91 45 100
37 4 -5 7 -34 5 -66z m600 -110 l-3 -60 -65 -3 -65 -3 -42 108 c-24 60 -43
111 -43 115 0 3 50 -17 110 -45 l111 -52 -3 -60z m1012 125 c0 -14 -14 -12
-28 2 -19 19 -14 30 8 18 11 -6 20 -15 20 -20z m-2394 -74 c38 -19 103 -44
143 -55 41 -11 76 -22 78 -24 2 -2 -34 -25 -79 -51 l-83 -47 -49 53 c-52 58
-146 186 -146 200 0 5 15 -2 33 -16 17 -13 64 -40 103 -60z m762 -25 c12 -11
22 -30 22 -44 0 -43 -19 -49 -125 -41 l-96 7 -25 49 c-14 27 -24 56 -22 65 2
8 28 25 58 38 l55 23 55 -39 c30 -22 65 -48 78 -58z m2539 53 c91 -41 206
-104 201 -110 -2 -2 -35 2 -73 7 -66 11 -223 1 -294 -18 -19 -5 -23 -3 -19 8
7 18 98 149 103 149 2 0 39 -16 82 -36z m-1640 -13 l32 -39 -24 -16 c-29 -19
-45 -20 -78 -5 l-24 11 24 44 c14 24 28 44 31 44 4 0 22 -18 39 -39z m780 22
c5 -13 -25 -26 -38 -17 -6 3 -5 11 2 20 13 16 31 14 36 -3z m227 -38 c-7 -25
-16 -50 -19 -55 -6 -10 -95 56 -95 70 0 8 70 27 107 29 20 1 21 0 7 -44z
m-825 -12 c15 -54 14 -60 -16 -66 -34 -6 -44 -2 -65 27 -17 23 -16 24 20 50
20 14 40 26 44 26 4 0 12 -17 17 -37z m-1340 -34 l21 -51 -45 6 c-25 3 -65 9
-90 12 -25 4 -45 9 -45 13 0 6 117 69 131 70 4 1 16 -22 28 -50z m2070 -4 c34
-26 61 -52 61 -58 0 -26 -46 -161 -56 -164 -5 -2 -26 25 -46 61 -30 52 -38 77
-44 141 -8 92 -9 92 85 20z m-1059 -6 c0 -18 -38 -50 -67 -55 l-33 -6 0 49 c0
27 3 52 6 56 7 7 94 -34 94 -44z m938 3 c-3 -14 -6 -14 -16 6 -7 12 -10 27 -6
33 9 15 27 -16 22 -39z m-1563 -2 c-5 -16 -10 -19 -18 -11 -7 7 -6 15 3 26 17
20 24 13 15 -15z m1537 -34 c29 -49 39 -81 47 -142 10 -81 6 -94 -29 -94 -17
0 -260 67 -266 73 -3 2 35 54 83 116 105 135 114 137 165 47z m-702 6 c-12 -2
-29 -1 -37 2 -14 6 -14 8 3 21 16 12 21 11 38 -3 18 -17 18 -17 -4 -20z m494
-57 c-42 -52 -82 -95 -88 -95 -7 0 -34 7 -60 16 l-48 17 6 48 c4 27 9 55 12
63 3 8 42 19 102 28 169 26 163 32 76 -77z m-635 66 c11 -7 10 -11 -7 -20 -11
-6 -28 -11 -37 -11 -13 0 -14 4 -5 20 12 21 27 25 49 11z m-731 -23 c16 -16
15 -28 0 -28 -22 0 -41 17 -34 29 9 14 19 14 34 -1z m1152 -15 c0 -16 -3 -39
-7 -51 -5 -21 -10 -23 -37 -18 -37 8 -42 13 -51 53 -6 31 -5 32 32 36 21 2 44
4 51 5 7 1 12 -9 12 -25z m-1550 -6 l85 -13 32 -59 c18 -33 32 -67 32 -75 0
-8 -21 -39 -47 -69 l-48 -53 -132 15 -132 15 -70 62 c-105 93 -105 90 -2 149
97 56 94 56 282 28z m3069 -14 c72 -37 105 -83 98 -137 -7 -54 -34 -86 -100
-119 -78 -39 -173 -57 -304 -57 l-112 0 -81 71 c-44 39 -80 73 -80 75 0 14
126 157 145 164 58 22 196 39 284 35 79 -3 103 -8 150 -32z m-1646 5 c8 -30 2
-34 -28 -14 -32 21 -32 36 -1 36 16 0 26 -7 29 -22z m-113 -19 c227 -82 254
-399 46 -519 -74 -42 -166 -50 -247 -22 -76 27 -147 102 -172 180 -28 89 -16
181 34 253 76 112 211 155 339 108z m958 -17 c17 -13 32 -28 32 -32 0 -6 -107
-50 -123 -50 -3 0 3 27 15 60 21 64 20 64 76 22z m-2035 18 c15 0 27 -3 27 -7
-1 -5 -18 -27 -40 -51 l-39 -43 -25 50 c-15 28 -26 53 -26 57 0 4 17 4 38 0
20 -3 49 -6 65 -6z m107 -89 c0 -83 -32 -201 -54 -201 -7 0 -29 36 -51 79
l-39 80 44 48 c60 66 81 84 91 77 5 -3 9 -40 9 -83z m580 72 c0 -37 -12 -60
-41 -77 -28 -16 -29 -16 -36 1 -3 10 -12 32 -19 50 -12 32 -12 32 19 36 69 8
77 7 77 -10z m78 5 c-2 -6 -14 -18 -26 -26 -21 -14 -22 -13 -22 12 0 21 5 26
26 26 15 0 24 -5 22 -12z m-608 -10 c0 -7 -5 -20 -10 -28 -8 -12 -10 -9 -10
13 0 15 5 27 10 27 6 0 10 -6 10 -12z m151 -50 c39 -35 88 -77 107 -94 l37
-32 -123 -61 c-133 -67 -166 -74 -176 -38 -12 47 -6 157 12 204 11 26 22 56
25 66 11 31 45 18 118 -45z m259 6 c11 -31 19 -58 18 -59 -2 -1 -26 -15 -55
-31 l-52 -28 -53 49 c-29 28 -70 64 -91 82 -20 18 -37 35 -37 38 0 3 56 5 124
5 l125 0 21 -56z m1753 44 c-42 -56 -87 -108 -93 -108 -3 0 -24 15 -46 34
l-39 34 80 25 c92 30 112 33 98 15z m-1027 -63 c4 -8 3 -22 0 -31 -8 -20 -31
-4 -39 26 -4 15 0 20 14 20 11 0 22 -7 25 -15z m-1856 -60 l64 -65 -80 0 c-75
0 -226 -20 -270 -36 -16 -6 -15 -3 5 19 29 32 189 147 205 147 6 0 41 -29 76
-65z m2722 28 c26 -21 47 -40 47 -43 0 -3 -19 -27 -43 -54 l-43 -50 -93 20
c-99 20 -117 33 -107 76 6 21 21 31 89 56 46 17 88 31 93 31 6 1 31 -16 57
-36z m-735 -7 c6 -5 -48 -85 -58 -86 -3 0 -16 11 -28 24 -19 20 -22 32 -17 60
l7 35 45 -14 c25 -7 48 -16 51 -19z m423 -13 c0 -24 -25 -9 -28 17 -3 21 -2
22 12 11 9 -7 16 -20 16 -28z m-1179 -10 c-9 -32 -26 -40 -35 -16 -5 11 -1 22
10 30 27 19 33 16 25 -14z m933 -27 c88 -26 104 -32 95 -39 -2 -2 -52 -27
-111 -54 l-106 -51 -41 39 c-23 22 -41 43 -41 47 0 5 14 27 32 51 36 49 32 49
172 7z m-1629 -46 c14 -27 25 -51 25 -53 0 -6 -120 19 -127 27 -8 7 60 84 70
79 4 -3 19 -26 32 -53z m642 29 c11 -27 9 -35 -9 -60 l-22 -29 -38 37 -37 37
37 22 c49 31 55 30 69 -7z m1263 -5 c0 -16 -35 -19 -45 -5 -6 11 26 32 37 25
5 -3 8 -12 8 -20z m422 -44 l53 -49 -30 -1 c-36 0 -146 17 -153 24 -7 7 51 74
65 75 6 1 36 -21 65 -49z m-962 15 c10 -12 10 -18 0 -30 -16 -19 -30 -10 -30
21 0 27 12 31 30 9z m-799 -117 c-46 -73 -34 -70 -160 -33 -62 19 -115 36
-118 39 -3 3 44 29 103 60 l109 54 44 -43 44 -43 -22 -34z m1259 103 c19 -36
11 -161 -14 -226 -33 -87 -44 -85 -171 25 -58 51 -105 94 -105 97 0 8 244 122
262 123 10 0 22 -9 28 -19z m-2180 -72 c44 -40 80 -74 80 -76 0 -3 -28 -39
-62 -81 -34 -42 -63 -79 -64 -80 -1 -2 -53 -13 -116 -24 -151 -26 -259 -20
-337 19 -184 92 -99 260 152 302 29 5 100 9 159 10 l107 1 81 -71z m2236 55
c-3 -9 -6 -21 -7 -27 0 -7 -4 -3 -8 8 -9 22 -5 35 11 35 5 0 7 -7 4 -16z
m-2129 -5 c35 -6 63 -14 63 -18 -1 -3 -16 -23 -34 -45 l-33 -38 -54 48 c-30
26 -55 51 -57 56 -5 11 39 10 115 -3z m402 -31 c1 -5 -6 -8 -15 -8 -11 0 -14
5 -10 16 3 9 6 21 7 27 0 12 17 -20 18 -35z m1825 -40 l40 -76 -59 -66 c-32
-37 -63 -65 -69 -63 -6 2 -12 36 -14 78 -3 57 1 89 19 142 13 37 28 66 34 64
5 -2 28 -37 49 -79z m-540 33 l38 -39 -40 -21 c-53 -27 -56 -27 -69 8 -9 24
-7 34 9 60 11 17 21 31 22 31 1 0 19 -18 40 -39z m648 -37 c-20 -23 -39 -43
-42 -43 -5 -1 -60 103 -60 113 0 1 31 -4 70 -12 l70 -15 -38 -43z m-1412 30
c0 -27 -12 -31 -30 -9 -10 12 -10 18 0 30 16 19 30 10 30 -21z m-720 10 c47
-10 91 -22 98 -27 7 -6 12 -24 10 -41 -3 -29 -9 -33 -87 -64 -49 -20 -93 -31
-105 -27 -12 3 -38 21 -60 40 l-38 34 42 51 c23 27 45 50 48 50 4 0 45 -7 92
-16z m2900 2 c0 -7 -156 -123 -197 -147 l-42 -24 -66 65 -66 65 128 7 c70 4
148 13 173 21 46 15 70 20 70 13z m-560 -21 l132 -16 74 -66 c40 -36 75 -71
78 -79 5 -14 -10 -24 -126 -87 -39 -22 -73 -34 -83 -31 -8 4 -66 14 -128 23
l-112 17 -32 59 c-18 33 -33 66 -33 73 0 11 88 122 96 122 1 0 62 -7 134 -15z
m-2145 -24 c7 -12 -29 -33 -39 -24 -3 3 -6 12 -6 20 0 15 36 18 45 4z m511
-76 c-6 -29 -11 -35 -24 -30 -9 3 -29 9 -45 12 -41 8 -42 19 -6 64 l32 41 25
-25 c21 -21 24 -31 18 -62z m-298 19 c70 -19 128 -37 131 -39 2 -2 -36 -54
-85 -115 -108 -135 -117 -138 -168 -45 -26 48 -38 84 -45 142 -14 110 -16 109
167 57z m985 14 c6 -22 -6 -38 -30 -38 -9 0 -9 8 -2 30 13 36 24 38 32 8z
m252 -63 l90 -84 -127 -1 -127 0 -21 57 c-12 32 -18 59 -13 60 4 2 26 14 48
27 22 13 45 24 50 25 6 0 51 -38 100 -84z m-1435 22 c0 -20 -1 -20 -16 -5 -9
9 -13 21 -9 27 10 16 25 3 25 -22z m-368 -18 c21 -18 36 -35 31 -39 -10 -10
-139 -50 -160 -50 -9 0 3 22 33 60 26 33 49 60 52 60 2 0 22 -14 44 -31z m342
-37 c28 -50 37 -78 42 -137 4 -45 3 -75 -3 -75 -14 0 -133 89 -139 105 -10 24
48 186 62 173 1 -2 18 -31 38 -66z m587 30 c7 -18 5 -22 -11 -22 -23 0 -34 15
-26 36 8 21 27 13 37 -14z m-700 -47 c-9 -30 -20 -57 -24 -61 -6 -7 -87 53
-87 64 0 7 96 49 116 51 8 1 6 -16 -5 -54z m1355 20 c24 -58 20 -65 -36 -65
-41 0 -50 3 -50 18 0 35 12 60 33 70 33 16 37 15 53 -23z m-782 9 l48 -17 -6
-48 c-4 -27 -9 -55 -12 -63 -6 -15 -228 -55 -240 -44 -8 8 137 188 151 188 6
0 33 -7 59 -16z m1466 -30 c11 -26 20 -49 20 -51 0 -6 -123 7 -129 13 -6 5 70
84 81 84 4 0 16 -21 28 -46z m-803 -41 c-3 -2 -16 -3 -29 -1 l-23 3 25 25 25
25 3 -23 c2 -13 1 -26 -1 -29z m579 10 c-11 -11 -19 6 -11 24 8 17 8 17 12 0
3 -10 2 -21 -1 -24z m-1895 -35 l46 -37 -20 -76 c-11 -41 -25 -75 -31 -75 -6
-1 -65 -20 -130 -44 l-119 -44 -103 35 -103 36 17 29 c9 16 40 59 67 95 l50
66 125 37 c95 29 129 35 140 27 8 -7 36 -28 61 -49z m783 51 c15 -7 26 -23 30
-42 3 -16 5 -31 4 -32 -2 -1 -24 -6 -50 -9 -53 -8 -55 -5 -42 63 7 33 19 37
58 20z m1954 -81 c71 -86 122 -157 122 -171 0 -4 -15 3 -32 17 -53 39 -146 82
-242 111 l-89 27 84 49 c46 27 85 49 86 49 1 0 33 -37 71 -82z m-1860 46 c29
-20 28 -34 -3 -34 -14 0 -25 4 -25 9 0 5 -3 16 -6 25 -8 20 5 20 34 0z m923
-30 c17 -15 16 -19 -7 -82 -30 -81 -127 -189 -160 -178 -13 4 -36 46 -72 130
-28 69 -52 129 -52 135 0 7 47 11 137 11 110 0 140 -3 154 -16z m108 0 c10 -9
-17 -24 -32 -18 -27 10 -22 37 6 28 12 -3 24 -8 26 -10z m-599 -42 c0 -27 -3
-51 -6 -54 -6 -7 -73 18 -88 32 -13 13 20 58 46 63 47 9 48 8 48 -41z m207
-57 c23 -55 42 -105 42 -112 1 -6 -49 12 -111 41 l-112 52 3 55 c1 29 5 57 8
62 2 4 32 7 66 5 l62 -3 42 -100z m634 89 c9 -2 28 -30 43 -62 l26 -57 -58
-27 c-31 -15 -60 -27 -64 -28 -3 0 -40 25 -82 57 -61 45 -76 61 -76 83 0 45
16 52 110 45 47 -4 92 -9 101 -11z m-953 -6 c-7 -19 -34 -32 -54 -24 -19 7
-19 8 0 22 24 17 59 19 54 2z m-1639 -87 c-60 -83 -47 -82 -195 -9 -97 49
-175 99 -129 83 41 -14 203 -15 285 -3 47 7 86 10 88 6 2 -3 -20 -38 -49 -77z
m2749 75 c40 -7 75 -15 77 -18 4 -4 -61 -36 -131 -65 -6 -2 -14 2 -17 9 -3 7
-12 30 -21 51 -19 44 -22 43 92 23z m-1265 -3 c7 -6 -21 -32 -35 -33 -4 0 -12
9 -18 20 -10 18 -8 20 18 20 16 0 32 -3 35 -7z m-84 -27 l23 -24 -38 -26 c-21
-14 -42 -26 -45 -26 -9 0 -29 57 -29 81 0 29 60 25 89 -5z m888 -13 c-17 -18
-22 -8 -11 22 5 12 10 13 17 6 8 -8 6 -16 -6 -28z m-1000 -28 c7 -27 13 -53
13 -57 0 -3 -30 -28 -67 -54 -38 -26 -83 -59 -102 -73 l-34 -26 6 35 c3 19 15
76 25 125 19 90 19 90 53 96 19 4 47 6 63 5 27 -1 31 -6 43 -51z m-716 14 c21
-17 39 -34 39 -38 0 -8 -117 -41 -123 -34 -8 7 26 103 36 103 5 0 27 -14 48
-31z m169 -5 c0 -19 -16 -18 -24 2 -11 27 -7 37 9 24 8 -7 15 -19 15 -26z
m836 22 c19 -14 19 -15 -3 -52 -12 -21 -26 -40 -30 -41 -5 -2 -24 14 -41 36
l-32 40 27 15 c35 19 54 20 79 2z m1430 -17 c193 -62 275 -114 319 -203 30
-62 26 -101 -16 -144 -68 -69 -228 -55 -422 36 l-103 49 -36 89 c-21 49 -38
94 -40 101 -3 11 163 101 189 102 7 1 56 -13 109 -30z m-1896 14 c1 -36 -57
-262 -70 -277 -17 -18 -20 -17 -76 22 -70 47 -82 60 -124 131 -28 49 -30 56
-16 69 9 9 67 26 133 38 133 25 153 27 153 17z m1241 -103 l2 -85 -82 -33
c-45 -18 -86 -30 -91 -27 -18 11 51 140 103 192 28 29 54 50 58 45 4 -4 9 -45
10 -92z m-661 58 l52 -22 -7 -120 c-6 -112 -10 -136 -18 -125 -2 2 -36 43 -75
91 -40 48 -72 91 -72 97 0 13 53 100 61 101 4 0 30 -10 59 -22z m-200 -40 l34
-40 -56 -105 c-30 -57 -59 -105 -63 -106 -5 -1 -18 39 -31 88 -39 155 -40 142
13 175 26 17 52 30 57 29 6 0 27 -19 46 -41z m964 -8 l48 -35 -53 -23 c-62
-27 -69 -22 -69 56 0 59 -4 59 74 2z m-1697 13 c-15 -15 -37 -11 -37 7 0 10
31 19 43 12 5 -2 2 -11 -6 -19z m-73 -19 c26 -26 18 -46 -45 -116 -44 -49 -68
-68 -85 -68 -40 0 -114 21 -114 33 0 6 7 36 16 68 l16 57 77 20 c95 25 116 26
135 6z m1219 -43 c69 -33 130 -69 136 -79 9 -17 2 -27 -52 -75 -48 -42 -79
-60 -135 -78 -87 -28 -92 -25 -92 66 0 60 11 225 15 225 1 0 59 -27 128 -59z
m804 -29 c31 -69 31 -72 10 -61 -40 22 -147 91 -147 95 0 8 84 44 95 41 5 -2
24 -36 42 -75z m-1896 37 c10 -20 10 -20 -15 -4 -14 10 -23 21 -20 26 7 12 21
3 35 -22z m518 -51 c62 -262 63 -257 -50 -238 -56 9 -91 22 -141 53 -68 41
-75 51 -60 75 11 17 214 162 228 162 6 0 16 -24 23 -52z m-899 31 c0 -5 -5
-30 -11 -54 l-11 -43 -66 19 c-104 29 -104 29 -12 60 97 32 100 33 100 18z
m401 -48 c36 -25 109 -126 109 -151 0 -9 -11 -11 -40 -6 -92 15 -139 28 -144
42 -3 8 -9 51 -12 96 l-7 82 29 -18 c16 -11 45 -31 65 -45z m-771 24 c40 -14
75 -27 78 -29 2 -3 -12 -12 -32 -20 -58 -24 -169 -92 -221 -135 -27 -22 -51
-39 -53 -37 -14 14 117 246 139 246 8 0 49 -11 89 -25z m2550 -26 c41 -27 91
-59 111 -69 32 -17 40 -30 74 -120 21 -55 35 -104 31 -108 -4 -4 -57 -9 -116
-10 l-109 -4 -83 60 c-46 33 -93 65 -105 71 -21 11 -23 19 -23 95 l0 83 63 25
c34 15 67 26 72 27 6 1 44 -22 85 -50z m-969 -65 c46 -58 84 -115 84 -127 0
-30 -129 -70 -200 -62 -120 14 -132 26 -92 97 13 24 43 78 66 121 24 42 46 77
51 77 4 0 45 -48 91 -106z m519 79 c-1 -19 -19 -35 -30 -28 -10 6 -9 11 5 22
22 15 25 16 25 6z m-1441 -96 c1 -32 -2 -38 -16 -33 -10 3 -35 8 -55 12 -21 3
-38 9 -38 12 0 4 21 28 48 55 l47 48 6 -28 c4 -15 7 -45 8 -66z m-426 34 c54
-15 98 -32 99 -37 0 -5 -8 -51 -18 -102 -18 -92 -18 -93 -69 -132 -116 -89
-227 -146 -314 -160 -99 -17 -168 15 -192 87 -22 67 42 171 151 247 40 27 227
125 240 125 3 0 49 -12 103 -28z m2067 -37 c0 -30 -2 -54 -5 -54 -11 0 -115
62 -115 69 0 8 103 49 113 44 4 -2 7 -29 7 -59z m-235 26 c0 -22 -29 -18 -33
3 -3 14 1 18 15 15 10 -2 18 -10 18 -18z m-70 -37 c-28 -20 -41 -16 -20 7 10
11 22 17 28 13 6 -4 3 -12 -8 -20z m-1065 -15 c0 -5 -7 -8 -15 -8 -8 0 -15 2
-15 4 0 2 -3 12 -6 21 -6 15 -4 15 15 4 11 -8 21 -17 21 -21z m1280 -19 c41
-24 78 -48 82 -54 4 -5 8 -36 8 -68 l0 -58 -71 3 -72 3 -43 80 c-24 44 -44 84
-44 88 0 12 49 59 58 54 4 -2 41 -24 82 -48z m-1774 30 l45 -12 -23 -24 c-13
-14 -45 -44 -72 -66 l-49 -41 7 39 c13 73 27 115 37 115 6 0 30 -5 55 -11z
m169 -40 c33 -7 62 -14 64 -15 2 -2 10 -36 17 -76 l12 -73 -95 -96 -95 -96
-81 -12 c-128 -17 -137 -16 -137 18 0 16 7 64 15 107 l15 78 97 92 c55 53 105
91 113 89 8 -2 42 -9 75 -16z m1394 -84 l-31 -76 -87 7 c-47 3 -90 10 -95 15
-5 5 14 29 44 56 59 54 192 112 198 88 2 -8 -11 -48 -29 -90z m955 20 c41 -14
92 -25 112 -25 62 0 27 -19 -75 -40 -50 -10 -113 -20 -139 -21 l-47 -3 -27 74
c-15 41 -27 80 -27 87 -1 7 24 0 64 -18 35 -16 98 -40 139 -54z m-1993 32 c-8
-8 -14 -7 -23 2 -11 10 -9 15 7 27 18 13 20 13 23 -2 2 -9 -1 -21 -7 -27z
m-131 -16 c0 -9 -100 -94 -105 -89 -3 2 -7 29 -11 59 l-6 56 61 -10 c33 -5 61
-13 61 -16z m206 14 c18 -14 18 -14 -8 -15 -18 0 -28 5 -28 15 0 19 11 19 36
0z m1053 -70 c17 -30 31 -57 31 -60 0 -7 -70 -4 -96 3 l-22 7 24 53 c12 28 25
52 27 52 3 0 19 -25 36 -55z m-1161 33 c7 -7 12 -21 12 -32 0 -22 -40 -153
-52 -172 -8 -13 -117 -38 -126 -30 -9 9 -30 120 -25 129 3 4 35 33 71 63 66
54 97 65 120 42z m857 -8 c-20 -22 -35 -26 -35 -10 0 6 10 15 23 20 32 13 32
12 12 -10z m625 -36 c39 -26 70 -49 70 -50 0 -2 -34 -4 -75 -4 l-75 0 0 50 c0
28 2 50 5 50 3 0 37 -21 75 -46z m-1331 26 c61 -11 183 -80 173 -97 -4 -6 -36
-19 -72 -28 -36 -9 -72 -18 -81 -21 -12 -3 -31 15 -63 60 -61 85 -65 96 -33
96 13 0 48 -4 76 -10z m651 -36 c0 -16 -26 -19 -35 -4 -4 6 -4 18 -1 27 5 12
9 13 21 3 8 -7 15 -19 15 -26z m-450 -5 c0 -10 -12 -11 -34 -3 -25 10 -19 22
9 16 14 -2 25 -8 25 -13z m384 7 c-3 -8 -13 -12 -25 -9 -16 5 -18 8 -7 14 20
13 38 11 32 -5z m-330 -22 c9 -23 8 -24 -14 -24 -11 0 -20 2 -20 4 0 12 13 36
20 36 4 0 11 -7 14 -16z m76 6 c9 -6 10 -10 3 -10 -6 0 -18 -3 -27 -6 -11 -4
-16 -1 -16 10 0 18 17 21 40 6z m-380 -110 c-16 -10 -91 -22 -97 -16 -5 4 23
100 34 119 3 5 21 -15 40 -43 26 -39 32 -54 23 -60z m623 83 c17 -10 2 -31
-58 -81 l-64 -53 -75 43 c-42 24 -76 48 -76 55 0 7 28 21 63 32 47 15 78 18
132 14 39 -3 73 -8 78 -10z m110 -9 c9 -3 39 -41 67 -84 l51 -78 -27 -54 c-14
-29 -28 -55 -30 -57 -2 -3 -31 8 -64 24 l-60 29 0 99 c0 83 3 102 18 113 20
15 25 16 45 8z m159 -14 l27 0 -20 -47 c-11 -27 -24 -51 -28 -55 -6 -7 -81 93
-81 108 0 4 17 4 38 0 20 -3 49 -6 64 -6z m288 -127 l73 -116 -7 -86 c-4 -47
-10 -96 -13 -109 -6 -27 -10 -26 -129 25 l-82 34 -66 117 -67 117 28 60 c15
33 30 65 34 70 4 6 40 9 82 7 l75 -4 72 -115z m602 16 c14 -58 29 -132 33
-164 l7 -60 -28 53 c-30 56 -131 175 -197 229 -25 22 -34 35 -25 38 12 4 150
12 173 10 6 -1 22 -48 37 -106z m-2532 94 c0 -8 -20 -131 -26 -160 -4 -23 -7
-23 -147 -22 -78 1 -153 4 -166 8 -21 6 -18 8 27 19 67 15 161 62 237 117 60
43 75 51 75 38z m1973 1 l37 -7 0 -73 c0 -41 -4 -74 -9 -74 -12 0 -101 146
-94 154 8 7 18 7 66 0z m-1537 -60 c3 -25 4 -48 0 -51 -8 -8 -140 -33 -145
-27 -7 7 121 134 130 128 4 -2 11 -25 15 -50z m617 43 c12 -8 22 -41 32 -102
8 -50 15 -92 15 -95 0 -8 -98 -80 -107 -80 -13 1 -78 99 -75 112 2 7 19 48 39
90 31 67 42 80 74 87 3 0 13 -5 22 -12z m1325 -94 c131 -131 167 -193 167
-290 0 -57 -3 -65 -33 -95 -28 -29 -39 -33 -85 -33 -69 0 -127 30 -213 108
-83 77 -187 206 -179 225 3 7 5 54 5 103 l0 89 115 0 115 0 108 -107z m-1438
70 c0 -14 -44 -113 -50 -113 -3 0 -21 20 -38 45 l-32 46 23 8 c50 19 97 26 97
14z m450 -58 c0 -36 -2 -65 -5 -65 -11 0 -95 45 -95 51 0 10 78 79 90 79 6 0
10 -28 10 -65z m-219 13 l52 -32 -39 -33 c-44 -37 -64 -42 -64 -14 0 10 -3 39
-6 65 -4 25 -4 46 -1 46 4 0 30 -14 58 -32z m-338 -50 c42 -58 44 -65 32 -88
-7 -14 -27 -70 -45 -126 l-33 -100 -87 -57 c-47 -31 -91 -57 -96 -57 -11 0
-64 172 -64 208 0 13 8 39 18 60 11 20 31 71 46 113 l28 76 61 15 c93 23 92
24 140 -44z m-244 10 c-1 -24 -54 -146 -64 -148 -10 -1 -32 75 -34 117 -1 18
7 24 42 31 58 13 57 13 56 0z m736 -45 c72 -42 63 -20 85 -212 l11 -94 -58
-95 -57 -95 -77 81 -76 82 -7 102 c-4 57 -9 117 -12 134 -5 28 0 35 56 82 34
29 64 52 67 52 2 0 33 -17 68 -37z m-846 -79 l24 -102 -56 -98 c-109 -193
-204 -277 -311 -278 -43 0 -52 4 -82 37 -31 33 -34 42 -34 97 0 99 72 243 183
366 41 44 47 47 132 64 50 10 97 17 105 16 10 -1 22 -34 39 -102z m1190 8 c22
-38 41 -74 41 -80 0 -7 -28 2 -70 23 l-70 35 22 45 c12 25 25 45 29 45 4 0 25
-31 48 -68z m-1510 11 c-48 -55 -126 -178 -139 -221 -26 -79 -32 -59 -28 85 2
79 7 146 11 149 7 7 100 21 156 23 l33 1 -33 -37z m775 -43 c14 -22 26 -43 26
-47 -1 -9 -120 -96 -125 -91 -6 6 58 178 66 178 3 0 18 -18 33 -40z m546 20
c22 -11 40 -26 40 -32 0 -14 -71 -141 -76 -136 -8 9 -19 188 -12 188 5 0 27
-9 48 -20z m-370 -54 c0 -24 3 -65 7 -91 4 -32 3 -46 -4 -44 -14 5 -93 105
-93 117 0 10 70 62 82 62 5 0 8 -20 8 -44z m1074 -128 c38 -37 78 -70 88 -74
32 -10 20 -26 -14 -19 -68 13 -218 58 -233 69 -13 9 -13 23 -3 100 l11 90 40
-50 c22 -27 72 -79 111 -116z m-529 95 l94 -47 36 -82 c72 -168 92 -324 51
-402 -68 -132 -205 -92 -295 87 -29 56 -78 225 -83 282 -2 19 89 209 99 209 2
0 45 -21 98 -47z m-591 -98 c63 -79 65 -93 46 -255 -25 -205 -112 -339 -211
-327 -135 17 -172 191 -103 487 l15 65 87 62 c66 46 90 58 99 50 6 -7 36 -43
67 -82z m-525 -49 c11 -41 24 -81 27 -89 4 -10 -25 -29 -103 -67 -107 -52
-183 -83 -189 -77 -2 2 16 20 41 40 40 34 185 235 185 258 0 5 4 9 8 9 5 0 19
-33 31 -74z m1364 37 c81 -32 80 -29 37 -199 -33 -131 -50 -163 -50 -94 0 56
-25 156 -61 245 -16 39 -29 74 -29 79 0 9 1 9 103 -31z m-1154 -148 c-10 -49
-19 -130 -19 -180 0 -54 -4 -85 -9 -80 -12 13 -99 207 -106 237 -4 20 5 29 72
70 42 26 78 47 79 45 1 -1 -7 -42 -17 -92z m710 -50 c12 -44 38 -115 59 -157
l38 -77 -29 18 c-35 22 -197 164 -197 172 0 4 21 41 47 84 53 86 47 89 82 -40z
m-179 -47 c0 -13 -119 -165 -165 -208 -47 -44 -47 -45 -31 -12 27 53 54 171
62 272 l7 94 63 -69 c35 -39 64 -73 64 -77z"/>
</g>
</svg>
